<svg width="24" height="24" viewBox="0 0 24 24" fill="none" xmlns="http://www.w3.org/2000/svg">
<path d="M9.99963 14L6.49963 17.5M6.49963 17.5L2.99963 21M6.49963 17.5L2.99963 14M6.49963 17.5L9.99963 21M15.5996 14H19.3996C19.9597 14 20.2397 14 20.4536 14.109C20.6418 14.2049 20.7948 14.3578 20.8906 14.546C20.9996 14.7599 20.9996 15.0399 20.9996 15.6V19.4C20.9996 19.9601 20.9996 20.2401 20.8906 20.454C20.7948 20.6422 20.6418 20.7951 20.4536 20.891C20.2397 21 19.9597 21 19.3996 21H15.5996C15.0396 21 14.7596 21 14.5456 20.891C14.3575 20.7951 14.2045 20.6422 14.1086 20.454C13.9996 20.2401 13.9996 19.9601 13.9996 19.4V15.6C13.9996 15.0399 13.9996 14.7599 14.1086 14.546C14.2045 14.3578 14.3575 14.2049 14.5456 14.109C14.7596 14 15.0396 14 15.5996 14ZM4.50778 10.25H8.49149C9.40093 10.25 9.85564 10.25 10.1185 10.059C10.3478 9.89243 10.4956 9.63638 10.5252 9.35453C10.5592 9.03139 10.3318 8.63759 9.87713 7.85L7.88527 4.4C7.43056 3.61241 7.2032 3.21861 6.90637 3.08645C6.64746 2.97118 6.3518 2.97118 6.0929 3.08645C5.79607 3.21861 5.56871 3.61241 5.11399 4.4L3.12213 7.85C2.66742 8.63759 2.44006 9.03139 2.47402 9.35453C2.50365 9.63638 2.65148 9.89243 2.88076 10.059C3.14363 10.25 3.59834 10.25 4.50778 10.25ZM21.4996 6.5C21.4996 8.70914 19.7088 10.5 17.4996 10.5C15.2905 10.5 13.4996 8.70914 13.4996 6.5C13.4996 4.29086 15.2905 2.5 17.4996 2.5C19.7088 2.5 21.4996 4.29086 21.4996 6.5Z" stroke="#2F2E2D" stroke-linecap="round" stroke-linejoin="round"/>
</svg>
